<?xml version="1.0" standalone="no"?><!DOCTYPE svg PUBLIC "-//W3C//DTD SVG 1.1//EN" "http://www.w3.org/Graphics/SVG/1.1/DTD/svg11.dtd"><svg t="1684494377542" class="icon" viewBox="0 0 1024 1024" version="1.1" xmlns="http://www.w3.org/2000/svg" p-id="1380" xmlns:xlink="http://www.w3.org/1999/xlink" width="13" height="13"><path d="M948.293683 252.928c-78.336 108.544-192.512 240.64-325.12 373.248-30.208 30.208-207.872 204.8-373.248 322.048 78.336 48.128 168.448 75.264 264.704 75.264 283.136 0 508.928-225.792 508.928-505.856 0-96.256-27.136-189.44-75.264-264.704zM644.677683 839.68c-38.912 0-69.12-30.208-69.12-69.12s30.208-69.12 69.12-69.12 69.12 30.208 69.12 69.12-30.208 69.12-69.12 69.12z m264.704-641.024C978.501683 102.4 1008.709683 30.208 987.717683 9.216 981.573683 3.072 972.869683 0 963.653683 0c-33.28 0-96.256 33.28-177.664 90.112-9.216-6.144-17.92-12.288-30.208-17.92-9.216-6.144-20.992-9.216-33.28-14.848-62.976-27.136-132.608-45.056-207.872-45.056-276.992 0-502.784 225.792-502.784 505.856 0 75.264 14.848 144.384 45.056 207.872 6.144 12.288 9.216 20.992 14.848 33.28 6.144 9.216 12.288 17.92 17.92 30.208C18.501683 890.88-14.778317 966.144 6.213683 987.136c6.144 3.072 12.288 6.144 20.992 6.144 33.28 0 93.184-30.208 171.52-84.48 105.472-72.192 240.64-189.44 382.464-328.192 138.752-141.312 252.928-276.48 328.192-381.952zM295.493683 605.184c-48.128 0-87.04-38.912-87.04-87.04s38.912-87.04 87.04-87.04 87.04 38.912 87.04 87.04-35.84 87.04-87.04 87.04z m159.232-231.936c-60.416 0-108.544-48.128-108.544-108.544S394.309683 156.16 454.725683 156.16 563.269683 204.8 563.269683 264.704s-48.128 108.544-108.544 108.544z" fill="#8a8a8a" p-id="1381"></path></svg>